<mxfile host="app.diagrams.net" modified="2022-03-23T13:23:07.493Z" agent="5.0 (Windows NT 10.0; Win64; x64) AppleWebKit/537.36 (KHTML, like Gecko) Chrome/99.0.4844.82 Safari/537.36" etag="9Wu53W-adTZBnUuYHrmg" version="17.1.5" type="github">
  <diagram id="9zqBgwYNVLlmfMZWi5aJ" name="Page-1">
    <mxGraphModel dx="1038" dy="579" grid="1" gridSize="10" guides="1" tooltips="1" connect="1" arrows="1" fold="1" page="1" pageScale="1" pageWidth="827" pageHeight="1169" math="0" shadow="0">
      <root>
        <mxCell id="0" />
        <mxCell id="1" parent="0" />
        <mxCell id="2XLGOAX98quEs2hSPVGi-36" style="edgeStyle=orthogonalEdgeStyle;rounded=0;orthogonalLoop=1;jettySize=auto;html=1;entryX=0;entryY=0.5;entryDx=0;entryDy=0;fontSize=10;" parent="1" source="2XLGOAX98quEs2hSPVGi-1" target="2XLGOAX98quEs2hSPVGi-3" edge="1">
          <mxGeometry relative="1" as="geometry">
            <Array as="points">
              <mxPoint x="200" y="280" />
              <mxPoint x="200" y="935" />
            </Array>
          </mxGeometry>
        </mxCell>
        <mxCell id="2XLGOAX98quEs2hSPVGi-1" value="" style="whiteSpace=wrap;html=1;aspect=fixed;dashed=1;" parent="1" vertex="1">
          <mxGeometry x="230" y="120" width="320" height="320" as="geometry" />
        </mxCell>
        <mxCell id="2XLGOAX98quEs2hSPVGi-38" style="edgeStyle=orthogonalEdgeStyle;rounded=0;orthogonalLoop=1;jettySize=auto;html=1;entryX=1;entryY=0.5;entryDx=0;entryDy=0;fontSize=10;" parent="1" source="2XLGOAX98quEs2hSPVGi-2" target="2XLGOAX98quEs2hSPVGi-3" edge="1">
          <mxGeometry relative="1" as="geometry">
            <Array as="points">
              <mxPoint x="570" y="610" />
              <mxPoint x="570" y="935" />
            </Array>
          </mxGeometry>
        </mxCell>
        <mxCell id="2XLGOAX98quEs2hSPVGi-2" value="" style="whiteSpace=wrap;html=1;aspect=fixed;dashed=1;" parent="1" vertex="1">
          <mxGeometry x="230" y="450" width="320" height="320" as="geometry" />
        </mxCell>
        <mxCell id="2XLGOAX98quEs2hSPVGi-3" value="" style="whiteSpace=wrap;html=1;aspect=fixed;dashed=1;" parent="1" vertex="1">
          <mxGeometry x="240" y="780" width="310" height="310" as="geometry" />
        </mxCell>
        <mxCell id="2XLGOAX98quEs2hSPVGi-5" value="All tea tab module" style="text;html=1;strokeColor=none;fillColor=none;align=center;verticalAlign=middle;whiteSpace=wrap;rounded=0;dashed=1;fontSize=40;" parent="1" vertex="1">
          <mxGeometry x="100" y="30" width="580" height="70" as="geometry" />
        </mxCell>
        <mxCell id="2XLGOAX98quEs2hSPVGi-8" value="presentation" style="text;html=1;strokeColor=none;fillColor=none;align=center;verticalAlign=middle;whiteSpace=wrap;rounded=0;dashed=1;fontSize=20;" parent="1" vertex="1">
          <mxGeometry x="270" y="1050" width="60" height="30" as="geometry" />
        </mxCell>
        <mxCell id="2XLGOAX98quEs2hSPVGi-10" value="domain" style="text;html=1;strokeColor=none;fillColor=none;align=center;verticalAlign=middle;whiteSpace=wrap;rounded=0;dashed=1;fontSize=20;" parent="1" vertex="1">
          <mxGeometry x="245" y="730" width="60" height="30" as="geometry" />
        </mxCell>
        <mxCell id="2XLGOAX98quEs2hSPVGi-11" value="data" style="text;html=1;strokeColor=none;fillColor=none;align=center;verticalAlign=middle;whiteSpace=wrap;rounded=0;dashed=1;fontSize=20;" parent="1" vertex="1">
          <mxGeometry x="250" y="400" width="60" height="30" as="geometry" />
        </mxCell>
        <mxCell id="2XLGOAX98quEs2hSPVGi-21" style="edgeStyle=orthogonalEdgeStyle;rounded=0;orthogonalLoop=1;jettySize=auto;html=1;entryX=0;entryY=0.5;entryDx=0;entryDy=0;fontSize=15;" parent="1" source="2XLGOAX98quEs2hSPVGi-13" target="2XLGOAX98quEs2hSPVGi-19" edge="1">
          <mxGeometry relative="1" as="geometry" />
        </mxCell>
        <mxCell id="2XLGOAX98quEs2hSPVGi-13" value="" style="rounded=0;whiteSpace=wrap;html=1;fontSize=20;" parent="1" vertex="1">
          <mxGeometry x="255" y="910" width="50" height="90" as="geometry" />
        </mxCell>
        <mxCell id="2XLGOAX98quEs2hSPVGi-14" value="activity" style="text;html=1;strokeColor=none;fillColor=none;align=center;verticalAlign=middle;whiteSpace=wrap;rounded=0;dashed=1;fontSize=15;" parent="1" vertex="1">
          <mxGeometry x="250" y="1000" width="60" height="30" as="geometry" />
        </mxCell>
        <mxCell id="2XLGOAX98quEs2hSPVGi-26" style="edgeStyle=orthogonalEdgeStyle;rounded=0;orthogonalLoop=1;jettySize=auto;html=1;fontSize=15;" parent="1" source="2XLGOAX98quEs2hSPVGi-19" edge="1">
          <mxGeometry relative="1" as="geometry">
            <mxPoint x="430" y="850" as="targetPoint" />
            <Array as="points">
              <mxPoint x="370" y="870" />
              <mxPoint x="430" y="870" />
              <mxPoint x="430" y="850" />
            </Array>
          </mxGeometry>
        </mxCell>
        <mxCell id="2XLGOAX98quEs2hSPVGi-19" value="" style="rounded=0;whiteSpace=wrap;html=1;fontSize=20;" parent="1" vertex="1">
          <mxGeometry x="345" y="910" width="50" height="90" as="geometry" />
        </mxCell>
        <mxCell id="2XLGOAX98quEs2hSPVGi-20" value="allTeaTabFragment" style="text;html=1;strokeColor=none;fillColor=none;align=center;verticalAlign=middle;whiteSpace=wrap;rounded=0;dashed=1;fontSize=15;" parent="1" vertex="1">
          <mxGeometry x="353" y="1000" width="60" height="30" as="geometry" />
        </mxCell>
        <mxCell id="2XLGOAX98quEs2hSPVGi-22" value="" style="endArrow=classic;html=1;rounded=0;fontSize=15;exitX=0.014;exitY=0.329;exitDx=0;exitDy=0;exitPerimeter=0;entryX=1.021;entryY=0.324;entryDx=0;entryDy=0;entryPerimeter=0;" parent="1" source="2XLGOAX98quEs2hSPVGi-19" target="2XLGOAX98quEs2hSPVGi-13" edge="1">
          <mxGeometry width="50" height="50" relative="1" as="geometry">
            <mxPoint x="290" y="970" as="sourcePoint" />
            <mxPoint x="310" y="940" as="targetPoint" />
          </mxGeometry>
        </mxCell>
        <mxCell id="2XLGOAX98quEs2hSPVGi-23" value="" style="rounded=0;whiteSpace=wrap;html=1;fontSize=15;" parent="1" vertex="1">
          <mxGeometry x="380" y="810" width="150" height="40" as="geometry" />
        </mxCell>
        <mxCell id="2XLGOAX98quEs2hSPVGi-25" style="edgeStyle=orthogonalEdgeStyle;rounded=0;orthogonalLoop=1;jettySize=auto;html=1;entryX=1;entryY=0.5;entryDx=0;entryDy=0;fontSize=15;" parent="1" target="2XLGOAX98quEs2hSPVGi-19" edge="1">
          <mxGeometry relative="1" as="geometry">
            <mxPoint x="450" y="850" as="sourcePoint" />
            <Array as="points">
              <mxPoint x="450" y="955" />
            </Array>
          </mxGeometry>
        </mxCell>
        <mxCell id="2XLGOAX98quEs2hSPVGi-24" value="allTeaTabViewModel" style="text;html=1;strokeColor=none;fillColor=none;align=center;verticalAlign=middle;whiteSpace=wrap;rounded=0;fontSize=15;" parent="1" vertex="1">
          <mxGeometry x="425" y="815" width="60" height="30" as="geometry" />
        </mxCell>
        <mxCell id="HedTIeaZYEsWLkMVgWXO-1" style="edgeStyle=orthogonalEdgeStyle;rounded=0;orthogonalLoop=1;jettySize=auto;html=1;exitX=0.5;exitY=1;exitDx=0;exitDy=0;entryX=0.532;entryY=0.016;entryDx=0;entryDy=0;entryPerimeter=0;" edge="1" parent="1" source="2XLGOAX98quEs2hSPVGi-28" target="2XLGOAX98quEs2hSPVGi-23">
          <mxGeometry relative="1" as="geometry" />
        </mxCell>
        <mxCell id="2XLGOAX98quEs2hSPVGi-28" value="&lt;font style=&quot;font-size: 10px&quot;&gt;GetAllTeaListUseCase&lt;/font&gt;" style="ellipse;whiteSpace=wrap;html=1;fontSize=15;" parent="1" vertex="1">
          <mxGeometry x="250" y="620" width="130" height="45" as="geometry" />
        </mxCell>
        <mxCell id="2XLGOAX98quEs2hSPVGi-33" style="edgeStyle=orthogonalEdgeStyle;rounded=0;orthogonalLoop=1;jettySize=auto;html=1;entryX=0.5;entryY=0;entryDx=0;entryDy=0;fontSize=10;" parent="1" source="2XLGOAX98quEs2hSPVGi-30" target="2XLGOAX98quEs2hSPVGi-28" edge="1">
          <mxGeometry relative="1" as="geometry">
            <Array as="points">
              <mxPoint x="390" y="590" />
              <mxPoint x="315" y="590" />
            </Array>
          </mxGeometry>
        </mxCell>
        <mxCell id="2XLGOAX98quEs2hSPVGi-34" style="edgeStyle=orthogonalEdgeStyle;rounded=0;orthogonalLoop=1;jettySize=auto;html=1;entryX=0.5;entryY=0;entryDx=0;entryDy=0;fontSize=10;" parent="1" source="2XLGOAX98quEs2hSPVGi-30" target="2XLGOAX98quEs2hSPVGi-31" edge="1">
          <mxGeometry relative="1" as="geometry" />
        </mxCell>
        <mxCell id="2XLGOAX98quEs2hSPVGi-30" value="&lt;font style=&quot;font-size: 10px&quot;&gt;TeaRepositoryInterface&lt;/font&gt;" style="rounded=1;whiteSpace=wrap;html=1;fontSize=15;" parent="1" vertex="1">
          <mxGeometry x="330" y="530" width="120" height="30" as="geometry" />
        </mxCell>
        <mxCell id="HedTIeaZYEsWLkMVgWXO-2" style="edgeStyle=orthogonalEdgeStyle;rounded=0;orthogonalLoop=1;jettySize=auto;html=1;exitX=0.5;exitY=1;exitDx=0;exitDy=0;" edge="1" parent="1" source="2XLGOAX98quEs2hSPVGi-31">
          <mxGeometry relative="1" as="geometry">
            <mxPoint x="460" y="810" as="targetPoint" />
          </mxGeometry>
        </mxCell>
        <mxCell id="2XLGOAX98quEs2hSPVGi-31" value="&lt;span style=&quot;font-size: 10px&quot;&gt;GetTeaDetailById&lt;/span&gt;" style="ellipse;whiteSpace=wrap;html=1;fontSize=15;" parent="1" vertex="1">
          <mxGeometry x="400" y="620" width="130" height="45" as="geometry" />
        </mxCell>
        <mxCell id="2XLGOAX98quEs2hSPVGi-32" value="&lt;font style=&quot;font-size: 10px&quot;&gt;TeaRepositoryImpl&lt;/font&gt;" style="rounded=1;whiteSpace=wrap;html=1;fontSize=15;" parent="1" vertex="1">
          <mxGeometry x="240" y="130" width="120" height="60" as="geometry" />
        </mxCell>
        <mxCell id="2XLGOAX98quEs2hSPVGi-35" value="TeaModel" style="rounded=1;whiteSpace=wrap;html=1;fontSize=10;" parent="1" vertex="1">
          <mxGeometry x="240" y="530" width="60" height="30" as="geometry" />
        </mxCell>
        <mxCell id="2XLGOAX98quEs2hSPVGi-39" value="allTeaRvAdapter" style="rounded=1;whiteSpace=wrap;html=1;fontSize=10;" parent="1" vertex="1">
          <mxGeometry x="260" y="820" width="80" height="20" as="geometry" />
        </mxCell>
        <mxCell id="2XLGOAX98quEs2hSPVGi-40" value="" style="rounded=1;whiteSpace=wrap;html=1;fontSize=10;dashed=1;" parent="1" vertex="1">
          <mxGeometry x="240" y="200" width="290" height="200" as="geometry" />
        </mxCell>
        <mxCell id="2XLGOAX98quEs2hSPVGi-41" value="storage" style="text;html=1;strokeColor=none;fillColor=none;align=center;verticalAlign=middle;whiteSpace=wrap;rounded=0;dashed=1;fontSize=10;" parent="1" vertex="1">
          <mxGeometry x="250" y="200" width="60" height="30" as="geometry" />
        </mxCell>
        <mxCell id="2XLGOAX98quEs2hSPVGi-42" value="TeaStorageInter" style="rounded=0;whiteSpace=wrap;html=1;fontSize=10;" parent="1" vertex="1">
          <mxGeometry x="425" y="145" width="77" height="30" as="geometry" />
        </mxCell>
        <mxCell id="2XLGOAX98quEs2hSPVGi-45" value="" style="endArrow=classic;html=1;rounded=0;fontSize=10;exitX=1;exitY=0.5;exitDx=0;exitDy=0;entryX=0;entryY=0.5;entryDx=0;entryDy=0;" parent="1" source="2XLGOAX98quEs2hSPVGi-32" target="2XLGOAX98quEs2hSPVGi-42" edge="1">
          <mxGeometry width="50" height="50" relative="1" as="geometry">
            <mxPoint x="350" y="330" as="sourcePoint" />
            <mxPoint x="400" y="280" as="targetPoint" />
            <Array as="points">
              <mxPoint x="399" y="160" />
            </Array>
          </mxGeometry>
        </mxCell>
        <mxCell id="2XLGOAX98quEs2hSPVGi-61" style="edgeStyle=orthogonalEdgeStyle;rounded=0;orthogonalLoop=1;jettySize=auto;html=1;entryX=0.5;entryY=0;entryDx=0;entryDy=0;fontSize=10;" parent="1" source="2XLGOAX98quEs2hSPVGi-46" target="2XLGOAX98quEs2hSPVGi-57" edge="1">
          <mxGeometry relative="1" as="geometry" />
        </mxCell>
        <mxCell id="2XLGOAX98quEs2hSPVGi-46" value="TeaStorageImpl" style="rounded=0;whiteSpace=wrap;html=1;fontSize=10;" parent="1" vertex="1">
          <mxGeometry x="376.5" y="260" width="75" height="30" as="geometry" />
        </mxCell>
        <mxCell id="2XLGOAX98quEs2hSPVGi-47" value="teaDatabase" style="rounded=0;whiteSpace=wrap;html=1;fontSize=10;" parent="1" vertex="1">
          <mxGeometry x="268" y="310" width="77" height="30" as="geometry" />
        </mxCell>
        <mxCell id="2XLGOAX98quEs2hSPVGi-50" value="teaEntity" style="rounded=1;whiteSpace=wrap;html=1;fontSize=10;" parent="1" vertex="1">
          <mxGeometry x="255" y="230" width="90" height="30" as="geometry" />
        </mxCell>
        <mxCell id="2XLGOAX98quEs2hSPVGi-51" value="teaDetailsEntity" style="rounded=1;whiteSpace=wrap;html=1;fontSize=10;" parent="1" vertex="1">
          <mxGeometry x="255" y="265" width="90" height="30" as="geometry" />
        </mxCell>
        <mxCell id="2XLGOAX98quEs2hSPVGi-56" style="edgeStyle=orthogonalEdgeStyle;rounded=0;orthogonalLoop=1;jettySize=auto;html=1;entryX=0.993;entryY=0.628;entryDx=0;entryDy=0;entryPerimeter=0;fontSize=10;" parent="1" source="2XLGOAX98quEs2hSPVGi-53" target="2XLGOAX98quEs2hSPVGi-19" edge="1">
          <mxGeometry relative="1" as="geometry">
            <Array as="points">
              <mxPoint x="433" y="967" />
            </Array>
          </mxGeometry>
        </mxCell>
        <mxCell id="2XLGOAX98quEs2hSPVGi-53" value="" style="rounded=0;whiteSpace=wrap;html=1;fontSize=20;" parent="1" vertex="1">
          <mxGeometry x="470" y="910" width="50" height="90" as="geometry" />
        </mxCell>
        <mxCell id="2XLGOAX98quEs2hSPVGi-54" value="teaDetailsFragment" style="text;html=1;strokeColor=none;fillColor=none;align=center;verticalAlign=middle;whiteSpace=wrap;rounded=0;dashed=1;fontSize=10;" parent="1" vertex="1">
          <mxGeometry x="465" y="1000" width="60" height="30" as="geometry" />
        </mxCell>
        <mxCell id="2XLGOAX98quEs2hSPVGi-55" value="" style="endArrow=classic;html=1;rounded=0;fontSize=10;entryX=0;entryY=0.75;entryDx=0;entryDy=0;exitX=1;exitY=0.75;exitDx=0;exitDy=0;" parent="1" source="2XLGOAX98quEs2hSPVGi-19" target="2XLGOAX98quEs2hSPVGi-53" edge="1">
          <mxGeometry width="50" height="50" relative="1" as="geometry">
            <mxPoint x="380" y="990" as="sourcePoint" />
            <mxPoint x="430" y="940" as="targetPoint" />
          </mxGeometry>
        </mxCell>
        <mxCell id="2XLGOAX98quEs2hSPVGi-58" style="edgeStyle=orthogonalEdgeStyle;rounded=0;orthogonalLoop=1;jettySize=auto;html=1;entryX=0.5;entryY=1;entryDx=0;entryDy=0;fontSize=10;" parent="1" source="2XLGOAX98quEs2hSPVGi-57" target="2XLGOAX98quEs2hSPVGi-47" edge="1">
          <mxGeometry relative="1" as="geometry" />
        </mxCell>
        <mxCell id="2XLGOAX98quEs2hSPVGi-62" style="edgeStyle=orthogonalEdgeStyle;rounded=0;orthogonalLoop=1;jettySize=auto;html=1;entryX=0.5;entryY=1;entryDx=0;entryDy=0;fontSize=10;" parent="1" source="2XLGOAX98quEs2hSPVGi-57" target="2XLGOAX98quEs2hSPVGi-46" edge="1">
          <mxGeometry relative="1" as="geometry" />
        </mxCell>
        <mxCell id="2XLGOAX98quEs2hSPVGi-57" value="TeaDao" style="rounded=1;whiteSpace=wrap;html=1;fontSize=10;" parent="1" vertex="1">
          <mxGeometry x="364" y="340" width="100" height="40" as="geometry" />
        </mxCell>
      </root>
    </mxGraphModel>
  </diagram>
</mxfile>
